<?xml version="1.0" standalone="no"?>
<svg viewBox="0 0 200 200" xmlns="http://www.w3.org/2000/svg">
  <path fill="#20BFA9" d="M36.6,-62.2C49.8,-55.9,64.2,-50.7,70.4,-40.5C76.6,-30.3,74.6,-15.1,75.7,0.6C76.8,16.4,81,32.8,76.9,46.5C72.7,60.2,60.1,71.2,45.9,79.4C31.6,87.5,15.8,92.8,2.3,88.8C-11.2,84.8,-22.4,71.5,-36.1,63C-49.7,54.6,-65.8,50.9,-75,41.2C-84.2,31.5,-86.4,15.8,-85.5,0.5C-84.6,-14.7,-80.5,-29.4,-72.7,-41.5C-64.9,-53.6,-53.4,-63.1,-40.7,-69.5C-27.9,-76,-14,-79.4,-1.1,-77.5C11.8,-75.6,23.5,-68.4,36.6,-62.2Z" transform="translate(100 100)" />
</svg>
