<?xml version="1.0" standalone="no"?>
<svg viewBox="0 0 200 200" xmlns="http://www.w3.org/2000/svg">
  <path fill="#20BFA9" d="M35.2,-64.6C43.7,-56.1,47.2,-42.7,53.3,-31.1C59.3,-19.5,68,-9.8,71,1.7C73.9,13.1,71.1,26.3,62.6,33.7C54.1,41.2,40,42.9,28.6,48C17.2,53.2,8.6,61.8,-1.8,65C-12.3,68.1,-24.5,65.9,-32.3,58.7C-40.1,51.5,-43.5,39.3,-52.5,28.7C-61.6,18,-76.3,9,-79.2,-1.6C-82,-12.3,-72.9,-24.5,-65.4,-37.9C-57.9,-51.2,-52,-65.5,-41.4,-72.7C-30.7,-79.9,-15.4,-80,-1,-78.3C13.4,-76.6,26.8,-73.1,35.2,-64.6Z" transform="translate(100 100)" />
</svg>
